{"title":"Atithi Tum Kab Jaoge (2010) Repack DVD Rip X264 AC3 Eng-Subs [Da","uid":5520717,"size":940525969,"categoryP":"video","categoryS":"movies","magnet":"?xt=urn:btih:4a7fba4dc44849bc56971020b8b2cd4984164c32&amp;dn=Atithi+Tum+Kab+Jaoge+%282010%29+Repack+DVD+Rip+X264+AC3+Eng-Subs+%5BDa&amp;tr=udp%3A%2F%2Ftracker.openbittorrent.com%3A80&amp;tr=udp%3A%2F%2Fopen.demonii.com%3A1337&amp;tr=udp%3A%2F%2Ftracker.coppersurfer.tk%3A6969&amp;tr=udp%3A%2F%2Fexodus.desync.com%3A6969","seeders":2,"leechers":0,"uploader":"luvwithromio","files":-1,"time":1272620036,"description":"Format                           : AVI\nFormat/Info                      : Audio Video Interleave\nFile size                        : 892 MiB\nDuration                         : 1h 52mn\nOverall bit rate                 : 1 105 Kbps\n\nVideo\nID                               : 0\nFormat                           : AVC\nFormat/Info                      : Advanced Video Codec\nFormat profile                   : &lt;a class=&quot;__cf_email__&quot; href=&quot;/cdn-cgi/l/email-protection&quot; data-cfemail=&quot;9ad2f3fdf2dad6a8b4ab&quot;&gt;[email&amp;#160;protected]&lt;/a&gt;&lt;script cf-hash='f9e31' type=&quot;text/javascript&quot;&gt;\n/* &lt;![CDATA[ */!function(){try{var t=&quot;currentScript&quot;in document?document.currentScript:function(){for(var t=document.getElementsByTagName(&quot;script&quot;),e=t.length;e--;)if(t[e].getAttribute(&quot;cf-hash&quot;))return t[e]}();if(t&amp;&amp;t.previousSibling){var e,r,n,i,c=t.previousSibling,a=c.getAttribute(&quot;data-cfemail&quot;);if(a){for(e=&quot;&quot;,r=parseInt(a.substr(0,2),16),n=2;a.length-n;n+=2)i=parseInt(a.substr(n,2),16)^r,e+=String.fromCharCode(i);e=document.createTextNode(e),c.parentNode.replaceChild(e,c)}}}catch(u){}}();/* ]]&gt; */&lt;/script&gt;\nFormat settings, CABAC           : Yes\nFormat settings, ReFrames        : 3 frames\nCodec ID                         : H264\nDuration                         : 1h 52mn\nBit rate                         : 902 Kbps\nWidth                            : 640 pixels\nHeight                           : 272 pixels\nDisplay aspect ratio             : 2.35:1\nFrame rate                       : 23.976 fps\nResolution                       : 8 bits\nColorimetry                      : 4:2:0\nScan type                        : Progressive\nBits/(Pixel*Frame)               : 0.216\nStream size                      : 728 MiB (82%)\nWriting library                  : x264 core 68\n\nAudio\nID                               : 1\nFormat                           : AC-3\nFormat/Info                      : Audio Coding 3\nFormat_Settings_ModeExtension    : CM (complete main)\nCodec ID                         : 2000\nDuration                         : 1h 52mn\nBit rate mode                    : Constant\nBit rate                         : 192 Kbps\nChannel(s)                       : 6 channels\nChannel positions                : Front: L C R, Side: L R, LFE\nSampling rate                    : 48.0 KHz\nResolution                       : 16 bits\nStream size                      : 155 MiB (17%)\nAlignment                        : Aligned on interleaves\nInterleave, duration             : 32 ms (0.77 video frame)","torrent":{"xt":"urn:btih:4a7fba4dc44849bc56971020b8b2cd4984164c32","amp;dn":"Atithi+Tum+Kab+Jaoge+%282010%29+Repack+DVD+Rip+X264+AC3+Eng-Subs+%5BDa","amp;tr":["udp%3A%2F%2Ftracker.openbittorrent.com%3A80","udp%3A%2F%2Fopen.demonii.com%3A1337","udp%3A%2F%2Ftracker.coppersurfer.tk%3A6969","udp%3A%2F%2Fexodus.desync.com%3A6969"],"infoHash":"4a7fba4dc44849bc56971020b8b2cd4984164c32","infoHashBuffer":{"type":"Buffer","data":[74,127,186,77,196,72,73,188,86,151,16,32,184,178,205,73,132,22,76,50]},"announce":[],"urlList":[]}}